<svg xmlns="http://www.w3.org/2000/svg" viewBox="0 0 42.27 37.6"><defs><style>.cls-1{fill:#283593;}.cls-2{fill:none;}</style></defs><g id="Layer_2" data-name="Layer 2"><g id="Layer_1-2" data-name="Layer 1"><path class="cls-1" d="M4,12.78a3,3,0,0,1-2.16-.9,3,3,0,0,1,0-4.33A3,3,0,0,1,4,6.65a3,3,0,0,1,2.17.9,3,3,0,0,1,.9,2.17,2.94,2.94,0,0,1-.42,1.53,3.19,3.19,0,0,1-1.1,1.12A3,3,0,0,1,4,12.78ZM4,30.44a3,3,0,0,1-2.16-.9,3,3,0,0,1,0-4.33A3,3,0,0,1,4,24.31a3,3,0,0,1,2.17.9,3,3,0,0,1,.48,3.7A3.19,3.19,0,0,1,5.57,30,3,3,0,0,1,4,30.44Z"/><path class="cls-1" d="M25.64,34.91H14.86V0H26.11a17.14,17.14,0,0,1,8.7,2.09,13.78,13.78,0,0,1,5.54,6,20.89,20.89,0,0,1,1.92,9.32,21,21,0,0,1-1.94,9.38,13.77,13.77,0,0,1-5.66,6A18,18,0,0,1,25.64,34.91Zm-6.55-3.75h6.27a14.05,14.05,0,0,0,7.18-1.67,10.24,10.24,0,0,0,4.24-4.76,17.51,17.51,0,0,0,1.4-7.34A17.63,17.63,0,0,0,36.8,10.1a10.18,10.18,0,0,0-4.12-4.7,13.08,13.08,0,0,0-6.84-1.65H19.09Z"/><path class="cls-2" d="M6.48,24.31l-.27,1.84a41.08,41.08,0,0,1-.88,4.16c-.4,1.47-.8,2.87-1.22,4.17s-.77,2.35-1,3.12H0c.15-.73.34-1.69.58-2.88s.48-2.52.72-4,.45-3,.61-4.5l.2-1.91ZM4,12.78a3,3,0,0,1-2.16-.9,3.05,3.05,0,0,1,0-4.33A3,3,0,0,1,4,6.65a3,3,0,0,1,2.17.9,3,3,0,0,1,.9,2.17,2.94,2.94,0,0,1-.42,1.53,3.19,3.19,0,0,1-1.1,1.12A2.92,2.92,0,0,1,4,12.78Z"/><path class="cls-2" d="M25.64,34.91H14.86V0H26.11a17.14,17.14,0,0,1,8.7,2.09,13.78,13.78,0,0,1,5.54,6,20.89,20.89,0,0,1,1.92,9.32,21,21,0,0,1-1.94,9.38,13.77,13.77,0,0,1-5.66,6A18,18,0,0,1,25.64,34.91Zm-6.55-3.75h6.27a14.05,14.05,0,0,0,7.18-1.67,10.24,10.24,0,0,0,4.24-4.76,17.51,17.51,0,0,0,1.4-7.34A17.63,17.63,0,0,0,36.8,10.1a10.2,10.2,0,0,0-4.13-4.7,13,13,0,0,0-6.83-1.65H19.09Z"/></g></g></svg>